<svg width="147" height="147" viewBox="0 0 147 147" fill="none" xmlns="http://www.w3.org/2000/svg">
<g clip-path="url(#clip0_1113_663)">
<path d="M73.38 146.76C113.907 146.76 146.76 113.907 146.76 73.38C146.76 32.8533 113.907 0 73.38 0C32.8533 0 0 32.8533 0 73.38C0 113.907 32.8533 146.76 73.38 146.76Z" fill="url(#paint0_linear_1113_663)"/>
<path d="M73.38 7.5C37 7.5 7.5 37 7.5 73.38C7.5 109.76 36.99 139.25 73.37 139.25C109.75 139.25 139.24 109.76 139.24 73.38C139.24 37 109.76 7.5 73.38 7.5ZM73.38 135.2C39.23 135.2 11.55 107.52 11.55 73.37C11.55 39.22 39.23 11.55 73.38 11.55C107.53 11.55 135.21 39.23 135.21 73.38C135.21 107.53 107.53 135.21 73.38 135.21V135.2Z" fill="black"/>
<path d="M73.3791 142.877C63.9991 142.877 54.8891 141.037 46.3191 137.417C38.0391 133.917 30.6091 128.907 24.2291 122.527C17.8491 116.147 12.8391 108.707 9.32914 100.437C5.69914 91.8672 3.86914 82.7672 3.86914 73.3772C3.86914 63.9872 5.70914 54.8872 9.32914 46.3172C12.8291 38.0372 17.8391 30.6072 24.2291 24.2272C30.6091 17.8472 38.0491 12.8372 46.3191 9.32719C54.8891 5.69719 63.9891 3.86719 73.3791 3.86719C82.7691 3.86719 91.8691 5.70719 100.439 9.32719C108.719 12.8272 116.149 17.8372 122.529 24.2272C128.909 30.6072 133.919 38.0472 137.419 46.3172C141.049 54.8872 142.879 63.9872 142.879 73.3772C142.879 82.7672 141.039 91.8672 137.419 100.437C133.919 108.717 128.909 116.147 122.529 122.527C116.149 128.907 108.709 133.917 100.439 137.417C91.8691 141.047 82.7691 142.877 73.3791 142.877ZM73.3791 9.02719C37.8891 9.02719 9.02914 37.8872 9.02914 73.3772C9.02914 108.867 37.8991 137.727 73.3791 137.727C108.859 137.727 137.729 108.857 137.729 73.3772C137.729 37.8972 108.859 9.02719 73.3791 9.02719Z" fill="url(#paint1_linear_1113_663)"/>
<path d="M73.3798 142.908C63.9898 142.908 54.8898 141.068 46.3098 137.438C38.0298 133.938 30.5898 128.918 24.2098 122.538C17.8298 116.148 12.8098 108.718 9.30984 100.438C5.67984 91.8581 3.83984 82.7581 3.83984 73.3681C3.83984 63.9781 5.67984 54.8781 9.30984 46.2981C12.8098 38.0181 17.8298 30.5781 24.2098 24.1981C30.5898 17.8181 38.0298 12.7981 46.3098 9.29813C54.8798 5.66813 63.9898 3.82812 73.3798 3.82812C82.7698 3.82812 91.8698 5.66813 100.45 9.29813C108.73 12.7981 116.17 17.8181 122.55 24.1981C128.94 30.5881 133.95 38.0181 137.45 46.2981C141.08 54.8681 142.92 63.9781 142.92 73.3681C142.92 82.7581 141.08 91.8581 137.45 100.438C133.95 108.718 128.93 116.158 122.55 122.538C116.16 128.928 108.73 133.938 100.45 137.438C91.8698 141.068 82.7698 142.908 73.3798 142.908ZM73.3798 5.40812C64.1998 5.40812 55.2998 7.20813 46.9198 10.7481C38.8298 14.1681 31.5598 19.0681 25.3198 25.3181C19.0798 31.5581 14.1798 38.8281 10.7498 46.9181C7.20984 55.2981 5.40984 64.1981 5.40984 73.3781C5.40984 82.5581 7.20984 91.4581 10.7498 99.8381C14.1698 107.928 19.0698 115.198 25.3198 121.438C31.5598 127.678 38.8298 132.578 46.9198 136.008C55.2998 139.548 64.1998 141.348 73.3798 141.348C82.5598 141.348 91.4598 139.548 99.8398 136.008C107.93 132.588 115.2 127.688 121.44 121.438C127.68 115.198 132.58 107.928 136.01 99.8381C139.55 91.4581 141.35 82.5581 141.35 73.3781C141.35 64.1981 139.55 55.2981 136.01 46.9181C132.59 38.8281 127.69 31.5581 121.44 25.3181C115.2 19.0781 107.93 14.1781 99.8398 10.7481C91.4598 7.20813 82.5598 5.40812 73.3798 5.40812Z" fill="url(#paint2_linear_1113_663)"/>
<path d="M73.7585 11.5469C60.4185 11.5469 48.0785 15.7869 37.9785 22.9669V123.777C48.0785 130.957 60.4185 135.197 73.7585 135.197C107.909 135.197 135.589 107.517 135.589 73.3669C135.589 39.2169 107.909 11.5469 73.7585 11.5469Z" fill="#073910"/>
<path d="M11.9395 73.3787C11.9395 94.1887 22.2295 112.579 37.9895 123.789V22.9688C22.2295 34.1788 11.9395 52.5687 11.9395 73.3787Z" fill="white"/>
<path d="M135.41 68.5569C125.38 82.8569 108.76 92.1969 89.9702 92.1969C66.1802 92.1969 45.8802 77.2269 37.9902 56.1969V22.9669C48.0902 15.7869 60.4302 11.5469 73.7702 11.5469C106.29 11.5469 132.96 36.6569 135.41 68.5569Z" fill="url(#paint3_linear_1113_663)"/>
<path opacity="0.85" d="M117.679 82.98C111.569 92.05 101.289 98 89.6588 98C70.9188 98 55.7188 82.57 55.7188 63.53C55.7188 51.5 61.7888 40.91 70.9788 34.75C67.2388 40.28 65.0488 46.99 65.0488 54.21C65.0488 73.25 80.2388 88.68 98.9788 88.68C105.889 88.68 112.319 86.58 117.679 82.98Z" fill="white"/>
<path opacity="0.85" d="M107.719 44.5981L103.139 53.6381L110.329 60.7881L100.309 59.2281L95.7391 68.2681L94.1291 58.2581L84.1191 56.6981L93.1291 52.0781L91.5191 42.0781L98.7091 49.2181L107.719 44.5981Z" fill="white"/>
<path style="mix-blend-mode:multiply" d="M133.33 90.6161C142.849 56.524 122.928 21.1706 88.8359 11.6519C54.7439 2.13322 19.3905 22.0539 9.87179 56.1459C0.353122 90.238 20.2738 125.591 54.3658 135.11C88.4578 144.629 123.811 124.708 133.33 90.6161Z" fill="url(#paint4_radial_1113_663)"/>
</g>
<defs>
<linearGradient id="paint0_linear_1113_663" x1="155.91" y1="97.83" x2="-62.86" y2="33.02" gradientUnits="userSpaceOnUse">
<stop stop-color="#3D3F40"/>
<stop offset="0.31" stop-color="#4D4E50"/>
<stop offset="0.67" stop-color="#404243"/>
<stop offset="0.72" stop-color="#777879"/>
<stop offset="0.79" stop-color="#BCBCBC"/>
<stop offset="0.82" stop-color="#D8D7D7"/>
<stop offset="0.92" stop-color="#EFEEEE"/>
<stop offset="1" stop-color="white"/>
</linearGradient>
<linearGradient id="paint1_linear_1113_663" x1="100.549" y1="27.4772" x2="5.83914" y2="187.437" gradientUnits="userSpaceOnUse">
<stop stop-color="#828486"/>
<stop offset="0.31" stop-color="#C5C4C5"/>
<stop offset="0.67" stop-color="#7E7F80"/>
<stop offset="0.77" stop-color="#BCBCBC"/>
<stop offset="0.82" stop-color="#D8D7D7"/>
<stop offset="0.92" stop-color="#EFEEEE"/>
<stop offset="1" stop-color="white"/>
</linearGradient>
<linearGradient id="paint2_linear_1113_663" x1="73.3798" y1="111.988" x2="73.3798" y2="-16.0219" gradientUnits="userSpaceOnUse">
<stop stop-color="#81612E"/>
<stop offset="0.17" stop-color="#AA8433"/>
<stop offset="0.26" stop-color="#CCA852"/>
<stop offset="0.36" stop-color="#E8C56A"/>
<stop offset="0.44" stop-color="#F9D679"/>
<stop offset="0.49" stop-color="#FFDD7F"/>
<stop offset="0.61" stop-color="#EECA70"/>
<stop offset="0.82" stop-color="#CAA351"/>
<stop offset="1" stop-color="#81612E"/>
</linearGradient>
<linearGradient id="paint3_linear_1113_663" x1="37.9902" y1="51.8769" x2="135.41" y2="51.8769" gradientUnits="userSpaceOnUse">
<stop stop-color="#009345"/>
<stop offset="0.32" stop-color="#047939"/>
<stop offset="0.99" stop-color="#0F391A"/>
<stop offset="1" stop-color="#10381A"/>
</linearGradient>
<radialGradient id="paint4_radial_1113_663" cx="0" cy="0" r="1" gradientUnits="userSpaceOnUse" gradientTransform="translate(71.6059 73.3847) scale(135)">
<stop offset="0.25" stop-color="white"/>
<stop offset="0.3" stop-color="#E9E8E8"/>
<stop offset="0.49" stop-color="#B0AFAF"/>
<stop offset="0.9" stop-color="#222121"/>
<stop offset="1"/>
</radialGradient>
<clipPath id="clip0_1113_663">
<rect width="146.75" height="146.75" fill="white"/>
</clipPath>
</defs>
</svg>
