<svg width="147" height="147" viewBox="0 0 147 147" fill="none" xmlns="http://www.w3.org/2000/svg">
<g clip-path="url(#clip0_1113_666)">
<path d="M73.38 146.76C113.907 146.76 146.76 113.907 146.76 73.38C146.76 32.8533 113.907 0 73.38 0C32.8533 0 0 32.8533 0 73.38C0 113.907 32.8533 146.76 73.38 146.76Z" fill="url(#paint0_linear_1113_666)"/>
<mask id="mask0_1113_666" style="mask-type:luminance" maskUnits="userSpaceOnUse" x="9" y="9" width="129" height="129">
<path d="M135.109 90.6239C144.628 56.5318 124.707 21.1784 90.6152 11.6597C56.5232 2.14103 21.1698 22.0617 11.6511 56.1537C2.13242 90.2458 22.0531 125.599 56.1451 135.118C90.2371 144.637 125.591 124.716 135.109 90.6239Z" fill="white"/>
</mask>
<g mask="url(#mask0_1113_666)">
<mask id="mask1_1113_666" style="mask-type:luminance" maskUnits="userSpaceOnUse" x="11" y="12" width="125" height="123">
<path d="M135.18 73.3769C135.18 107.107 107.51 134.447 73.3803 134.447C39.2503 134.447 11.5703 107.107 11.5703 73.3769C11.5703 39.6469 39.2503 12.2969 73.3803 12.2969C107.51 12.2969 135.18 39.6469 135.18 73.3669V73.3769Z" fill="white"/>
</mask>
<g mask="url(#mask1_1113_666)">
<path d="M120.01 26.7451C105.96 16.0951 89.9801 7.90505 71.9301 8.34505C54.9401 8.75505 40.0001 16.6951 26.7501 26.7451C16.1401 40.7051 8.87008 55.6251 8.33008 73.3751C51.7501 71.9651 95.0101 71.6151 138.43 73.3751C137.89 55.6251 130.62 40.7051 120.01 26.7451Z" fill="#FF0003"/>
<path d="M8.33008 73.372C8.87008 91.132 16.1501 106.042 26.7501 120.002C40.0101 130.052 54.9401 137.982 71.9301 138.402C89.9801 138.842 105.96 130.642 120.01 120.002C130.61 106.042 137.89 91.122 138.43 73.372C95.0101 71.612 51.7501 71.962 8.33008 73.372Z" fill="white"/>
</g>
<path d="M45.65 43.0334C44.51 43.0334 43.94 43.0334 42.79 43.0334C42.42 41.9234 42.24 41.3734 41.87 40.2734C41.47 41.3834 41.27 41.9334 40.86 43.0334C39.72 43.0334 39.14 43.0334 38 43.0334C38.93 43.7234 39.4 44.0734 40.33 44.7734C39.93 45.9134 39.73 46.4734 39.32 47.6034C40.3 46.9334 40.79 46.5934 41.77 45.9134C42.72 46.6134 43.2 46.9634 44.16 47.6734C43.79 46.5134 43.61 45.9434 43.24 44.7934C44.2 44.0934 44.68 43.7534 45.63 43.0434L45.65 43.0334Z" fill="white"/>
<path d="M54.7305 36.2041C53.6105 36.2041 53.0505 36.2041 51.9305 36.2241C51.5405 35.0941 51.3405 34.5341 50.9605 33.4141C50.6005 34.5441 50.4105 35.1141 50.0405 36.2441C48.9205 36.2541 48.3505 36.2641 47.2305 36.2741C48.1605 36.9641 48.6305 37.3241 49.5705 38.0241C49.2005 39.1941 49.0105 39.7741 48.6305 40.9341C49.5805 40.2341 50.0605 39.8741 51.0005 39.1641C51.9505 39.8641 52.4305 40.2141 53.4005 40.9241C53.0105 39.7541 52.8205 39.1641 52.4305 37.9941C53.3605 37.2741 53.8205 36.9141 54.7305 36.1941V36.2041Z" fill="white"/>
<path d="M64.0009 43.1244C62.8609 43.1144 62.2909 43.1044 61.1509 43.0944C60.7409 41.9444 60.5309 41.3744 60.1209 40.2344C59.7709 41.3744 59.5909 41.9444 59.2309 43.0844C58.0909 43.0844 57.5209 43.0744 56.3809 43.0644C57.3409 43.7844 57.8209 44.1544 58.7909 44.8844C58.4309 46.0644 58.2409 46.6544 57.8709 47.8344C58.8309 47.1344 59.3109 46.7844 60.2609 46.0744C61.2409 46.8044 61.7309 47.1644 62.7109 47.8944C62.3009 46.7044 62.1009 46.1044 61.6909 44.9144C62.6309 44.2044 63.0909 43.8444 64.0209 43.1244H64.0009Z" fill="white"/>
<path d="M60.6704 54.3263C59.5104 54.3063 58.9304 54.2962 57.7704 54.2762C57.3804 53.1262 57.1804 52.5562 56.7904 51.4062C56.4004 52.5362 56.2104 53.1063 55.8104 54.2363C54.6504 54.2163 54.0704 54.1963 52.9004 54.1763C53.8604 54.9163 54.3404 55.2862 55.3004 56.0262C54.9104 57.1962 54.7104 57.7763 54.3104 58.9463C55.2904 58.2663 55.7904 57.9162 56.7704 57.2262C57.7404 57.9662 58.2304 58.3263 59.2004 59.0662C58.8204 57.8762 58.6304 57.2763 58.2504 56.0863C59.2204 55.3863 59.7004 55.0263 60.6704 54.3263Z" fill="white"/>
<path d="M49.0996 54.0853C47.9396 54.0553 47.3596 54.0453 46.1996 54.0153C45.8196 52.8853 45.6296 52.3253 45.2596 51.1953C44.8596 52.3053 44.6596 52.8553 44.2496 53.9553C43.0896 53.9253 42.5096 53.9053 41.3496 53.8653C42.2996 54.5953 42.7796 54.9553 43.7296 55.6953C43.3296 56.8353 43.1296 57.4053 42.7296 58.5453C43.7196 57.8953 44.2096 57.5653 45.1896 56.8953C46.1496 57.6253 46.6396 57.9953 47.5996 58.7353C47.2296 57.5553 47.0396 56.9653 46.6696 55.7953C47.6396 55.1153 48.1296 54.7753 49.0996 54.0853Z" fill="white"/>
<path d="M32.0806 47.2146C32.3406 38.6946 39.5606 31.4646 47.9706 30.9846C46.1506 30.3146 44.2006 29.9946 42.1606 30.0746C32.9906 30.4146 24.7906 38.1345 24.4006 47.0945C24.0106 56.0546 31.8906 64.1145 41.5906 64.6945C43.7606 64.8245 45.8406 64.5445 47.7706 63.9145C38.9006 63.2445 31.8406 55.7346 32.1006 47.2246L32.0806 47.2146Z" fill="white"/>
<path style="mix-blend-mode:screen" opacity="0.5" d="M135.18 73.3769C135.18 107.107 107.51 134.447 73.3803 134.447C39.2503 134.447 11.5703 107.107 11.5703 73.3769C11.5703 39.6469 39.2503 12.2969 73.3803 12.2969C107.51 12.2969 135.18 39.6469 135.18 73.3669V73.3769Z" fill="url(#paint1_radial_1113_666)"/>
<path style="mix-blend-mode:multiply" opacity="0.8" d="M135.18 73.3769C135.18 107.107 107.51 134.447 73.3803 134.447C39.2503 134.447 11.5703 107.107 11.5703 73.3769C11.5703 39.6469 39.2503 12.2969 73.3803 12.2969C107.51 12.2969 135.18 39.6469 135.18 73.3669V73.3769Z" fill="url(#paint2_radial_1113_666)"/>
</g>
<path style="mix-blend-mode:multiply" d="M137.035 90.6239C146.554 56.5318 126.633 21.1784 92.541 11.6597C58.449 2.14105 23.0955 22.0617 13.5769 56.1537C4.0582 90.2458 23.9788 125.599 58.0709 135.118C92.1629 144.637 127.516 124.716 137.035 90.6239Z" fill="url(#paint3_radial_1113_666)"/>
<path d="M73.38 7.5C37 7.5 7.5 37 7.5 73.38C7.5 109.76 36.99 139.25 73.37 139.25C109.75 139.25 139.24 109.76 139.24 73.38C139.24 37 109.76 7.5 73.38 7.5ZM73.38 135.2C39.23 135.2 11.55 107.52 11.55 73.37C11.55 39.22 39.23 11.55 73.38 11.55C107.53 11.55 135.21 39.23 135.21 73.38C135.21 107.53 107.53 135.21 73.38 135.21V135.2Z" fill="#010101"/>
<path d="M73.3791 142.877C63.9991 142.877 54.8891 141.037 46.3191 137.417C38.0391 133.917 30.6091 128.907 24.2291 122.527C17.8491 116.147 12.8391 108.707 9.32914 100.437C5.69914 91.8672 3.86914 82.7672 3.86914 73.3772C3.86914 63.9872 5.70914 54.8872 9.32914 46.3172C12.8291 38.0372 17.8391 30.6072 24.2291 24.2272C30.6091 17.8472 38.0491 12.8372 46.3191 9.32719C54.8891 5.69719 63.9891 3.86719 73.3791 3.86719C82.7691 3.86719 91.8691 5.70719 100.439 9.32719C108.719 12.8272 116.149 17.8372 122.529 24.2272C128.909 30.6072 133.919 38.0472 137.419 46.3172C141.049 54.8872 142.879 63.9872 142.879 73.3772C142.879 82.7672 141.039 91.8672 137.419 100.437C133.919 108.717 128.909 116.147 122.529 122.527C116.149 128.907 108.709 133.917 100.439 137.417C91.8691 141.047 82.7691 142.877 73.3791 142.877ZM73.3791 9.02719C37.8891 9.02719 9.02914 37.8872 9.02914 73.3772C9.02914 108.867 37.8991 137.727 73.3791 137.727C108.859 137.727 137.729 108.857 137.729 73.3772C137.729 37.8972 108.859 9.02719 73.3791 9.02719Z" fill="url(#paint4_linear_1113_666)"/>
<path d="M73.3798 142.908C63.9898 142.908 54.8898 141.068 46.3098 137.438C38.0298 133.938 30.5898 128.918 24.2098 122.538C17.8298 116.148 12.8098 108.718 9.30984 100.438C5.67984 91.8581 3.83984 82.7581 3.83984 73.3681C3.83984 63.9781 5.67984 54.8781 9.30984 46.2981C12.8098 38.0181 17.8298 30.5781 24.2098 24.1981C30.5898 17.8181 38.0298 12.7981 46.3098 9.29813C54.8798 5.66813 63.9898 3.82812 73.3798 3.82812C82.7698 3.82812 91.8698 5.66813 100.45 9.29813C108.73 12.7981 116.17 17.8181 122.55 24.1981C128.94 30.5881 133.95 38.0181 137.45 46.2981C141.08 54.8681 142.92 63.9781 142.92 73.3681C142.92 82.7581 141.08 91.8581 137.45 100.438C133.95 108.718 128.93 116.158 122.55 122.538C116.16 128.928 108.73 133.938 100.45 137.438C91.8698 141.068 82.7698 142.908 73.3798 142.908ZM73.3798 5.40812C64.1998 5.40812 55.2998 7.20813 46.9198 10.7481C38.8298 14.1681 31.5598 19.0681 25.3198 25.3181C19.0798 31.5581 14.1798 38.8281 10.7498 46.9181C7.20984 55.2981 5.40984 64.1981 5.40984 73.3781C5.40984 82.5581 7.20984 91.4581 10.7498 99.8381C14.1698 107.928 19.0698 115.198 25.3198 121.438C31.5598 127.678 38.8298 132.578 46.9198 136.008C55.2998 139.548 64.1998 141.348 73.3798 141.348C82.5598 141.348 91.4598 139.548 99.8398 136.008C107.93 132.588 115.2 127.688 121.44 121.438C127.68 115.198 132.58 107.928 136.01 99.8381C139.55 91.4581 141.35 82.5581 141.35 73.3781C141.35 64.1981 139.55 55.2981 136.01 46.9181C132.59 38.8281 127.69 31.5581 121.44 25.3181C115.2 19.0781 107.93 14.1781 99.8398 10.7481C91.4598 7.20813 82.5598 5.40812 73.3798 5.40812Z" fill="url(#paint5_linear_1113_666)"/>
</g>
<defs>
<linearGradient id="paint0_linear_1113_666" x1="155.91" y1="97.83" x2="-62.86" y2="33.02" gradientUnits="userSpaceOnUse">
<stop stop-color="#3D4041"/>
<stop offset="0.31" stop-color="#4E4F50"/>
<stop offset="0.67" stop-color="#404243"/>
<stop offset="0.72" stop-color="#78797A"/>
<stop offset="0.79" stop-color="#BDBDBD"/>
<stop offset="0.82" stop-color="#D9D8D8"/>
<stop offset="0.92" stop-color="#EFEEEE"/>
<stop offset="1" stop-color="white"/>
</linearGradient>
<radialGradient id="paint1_radial_1113_666" cx="0" cy="0" r="1" gradientUnits="userSpaceOnUse" gradientTransform="translate(69.9303 76.8369) scale(79.89 79.89)">
<stop offset="0.02" stop-color="#EEF8FA"/>
<stop offset="0.06" stop-color="#D3DCDE"/>
<stop offset="0.17" stop-color="#9CA2A4"/>
<stop offset="0.28" stop-color="#6C7172"/>
<stop offset="0.39" stop-color="#464949"/>
<stop offset="0.49" stop-color="#272929"/>
<stop offset="0.59" stop-color="#121313"/>
<stop offset="0.69" stop-color="#050505"/>
<stop offset="0.77" stop-color="#010101"/>
</radialGradient>
<radialGradient id="paint2_radial_1113_666" cx="0" cy="0" r="1" gradientUnits="userSpaceOnUse" gradientTransform="translate(79.4403 68.8469) scale(75.27 75.27)">
<stop offset="0.59" stop-color="#EEF8FA"/>
<stop offset="0.64" stop-color="#E9F3F5"/>
<stop offset="0.69" stop-color="#DDE7E8"/>
<stop offset="0.74" stop-color="#C9D1D3"/>
<stop offset="0.8" stop-color="#ACB4B5"/>
<stop offset="0.85" stop-color="#888E8F"/>
<stop offset="0.91" stop-color="#5B5F60"/>
<stop offset="0.96" stop-color="#272929"/>
<stop offset="1" stop-color="#010101"/>
</radialGradient>
<radialGradient id="paint3_radial_1113_666" cx="0" cy="0" r="1" gradientUnits="userSpaceOnUse" gradientTransform="translate(75.3158 73.3887) scale(135 135)">
<stop offset="0.25" stop-color="white"/>
<stop offset="0.3" stop-color="#EAE9E9"/>
<stop offset="0.49" stop-color="#B1B0B0"/>
<stop offset="0.9" stop-color="#232222"/>
<stop offset="1" stop-color="#010101"/>
</radialGradient>
<linearGradient id="paint4_linear_1113_666" x1="100.549" y1="27.4772" x2="5.83914" y2="187.437" gradientUnits="userSpaceOnUse">
<stop stop-color="#848587"/>
<stop offset="0.31" stop-color="#C7C5C6"/>
<stop offset="0.67" stop-color="#7F8081"/>
<stop offset="0.77" stop-color="#BDBDBD"/>
<stop offset="0.82" stop-color="#D9D8D8"/>
<stop offset="0.92" stop-color="#EFEEEE"/>
<stop offset="1" stop-color="white"/>
</linearGradient>
<linearGradient id="paint5_linear_1113_666" x1="73.3798" y1="111.988" x2="73.3798" y2="-16.0219" gradientUnits="userSpaceOnUse">
<stop stop-color="#82612F"/>
<stop offset="0.17" stop-color="#AC8533"/>
<stop offset="0.26" stop-color="#CEA952"/>
<stop offset="0.36" stop-color="#E8C66B"/>
<stop offset="0.44" stop-color="#F9D77A"/>
<stop offset="0.49" stop-color="#FFDE80"/>
<stop offset="0.62" stop-color="#EECB71"/>
<stop offset="0.82" stop-color="#CBA552"/>
<stop offset="1" stop-color="#82612F"/>
</linearGradient>
<clipPath id="clip0_1113_666">
<rect width="146.75" height="146.75" fill="white"/>
</clipPath>
</defs>
</svg>
