<svg width="147" height="147" viewBox="0 0 147 147" fill="none" xmlns="http://www.w3.org/2000/svg">
<g clip-path="url(#clip0_1113_665)">
<path d="M73.38 146.76C113.907 146.76 146.76 113.907 146.76 73.38C146.76 32.8533 113.907 0 73.38 0C32.8533 0 0 32.8533 0 73.38C0 113.907 32.8533 146.76 73.38 146.76Z" fill="url(#paint0_linear_1113_665)"/>
<mask id="mask0_1113_665" style="mask-type:luminance" maskUnits="userSpaceOnUse" x="9" y="9" width="129" height="129">
<path d="M135.109 90.6239C144.628 56.5318 124.707 21.1784 90.6152 11.6597C56.5232 2.14103 21.1698 22.0617 11.6511 56.1537C2.13242 90.2458 22.0531 125.599 56.1451 135.118C90.2371 144.637 125.591 124.716 135.109 90.6239Z" fill="white"/>
</mask>
<g mask="url(#mask0_1113_665)">
<path d="M137.47 10.6172H11.0996V52.1172H137.47V10.6172Z" fill="#010101"/>
<path d="M137.47 95.2734H11.0996V136.773H137.47V95.2734Z" fill="#12A84B"/>
<path d="M137.47 52.1172H11.0996V95.2772H137.47V52.1172Z" fill="white"/>
<path d="M54.4896 10.6172H11.0996V136.777H54.4896V10.6172Z" fill="#CC2028"/>
</g>
<path style="mix-blend-mode:multiply" d="M135.109 90.6239C144.628 56.5318 124.707 21.1784 90.6152 11.6597C56.5232 2.14103 21.1698 22.0617 11.6511 56.1537C2.13242 90.2458 22.0531 125.599 56.1451 135.118C90.2371 144.637 125.591 124.716 135.109 90.6239Z" fill="url(#paint1_radial_1113_665)"/>
<path d="M73.38 7.5C37 7.5 7.5 37 7.5 73.38C7.5 109.76 36.99 139.25 73.37 139.25C109.75 139.25 139.24 109.76 139.24 73.38C139.24 37 109.76 7.5 73.38 7.5ZM73.38 135.2C39.23 135.2 11.55 107.52 11.55 73.37C11.55 39.22 39.23 11.55 73.38 11.55C107.53 11.55 135.21 39.23 135.21 73.38C135.21 107.53 107.53 135.21 73.38 135.21V135.2Z" fill="#010101"/>
<path opacity="0.6" d="M73.4598 70.7516C96.3079 70.7516 114.83 58.9095 114.83 44.3016C114.83 29.6936 96.3079 17.8516 73.4598 17.8516C50.6118 17.8516 32.0898 29.6936 32.0898 44.3016C32.0898 58.9095 50.6118 70.7516 73.4598 70.7516Z" fill="url(#paint2_linear_1113_665)"/>
<path d="M73.3791 142.877C63.9991 142.877 54.8891 141.037 46.3191 137.417C38.0391 133.917 30.6091 128.907 24.2291 122.527C17.8491 116.147 12.8391 108.707 9.32914 100.437C5.69914 91.8672 3.86914 82.7672 3.86914 73.3772C3.86914 63.9872 5.70914 54.8872 9.32914 46.3172C12.8291 38.0372 17.8391 30.6072 24.2291 24.2272C30.6091 17.8472 38.0491 12.8372 46.3191 9.32719C54.8891 5.69719 63.9891 3.86719 73.3791 3.86719C82.7691 3.86719 91.8691 5.70719 100.439 9.32719C108.719 12.8272 116.149 17.8372 122.529 24.2272C128.909 30.6072 133.919 38.0472 137.419 46.3172C141.049 54.8872 142.879 63.9872 142.879 73.3772C142.879 82.7672 141.039 91.8672 137.419 100.437C133.919 108.717 128.909 116.147 122.529 122.527C116.149 128.907 108.709 133.917 100.439 137.417C91.8691 141.047 82.7691 142.877 73.3791 142.877ZM73.3791 9.02719C37.8891 9.02719 9.02914 37.8872 9.02914 73.3772C9.02914 108.867 37.8991 137.727 73.3791 137.727C108.859 137.727 137.729 108.857 137.729 73.3772C137.729 37.8972 108.859 9.02719 73.3791 9.02719Z" fill="url(#paint3_linear_1113_665)"/>
<path d="M73.3798 142.908C63.9898 142.908 54.8898 141.068 46.3098 137.438C38.0298 133.938 30.5898 128.918 24.2098 122.538C17.8298 116.148 12.8098 108.718 9.30984 100.438C5.67984 91.8581 3.83984 82.7581 3.83984 73.3681C3.83984 63.9781 5.67984 54.8781 9.30984 46.2981C12.8098 38.0181 17.8298 30.5781 24.2098 24.1981C30.5898 17.8181 38.0298 12.7981 46.3098 9.29813C54.8798 5.66813 63.9898 3.82812 73.3798 3.82812C82.7698 3.82812 91.8698 5.66813 100.45 9.29813C108.73 12.7981 116.17 17.8181 122.55 24.1981C128.94 30.5881 133.95 38.0181 137.45 46.2981C141.08 54.8681 142.92 63.9781 142.92 73.3681C142.92 82.7581 141.08 91.8581 137.45 100.438C133.95 108.718 128.93 116.158 122.55 122.538C116.16 128.928 108.73 133.938 100.45 137.438C91.8698 141.068 82.7698 142.908 73.3798 142.908ZM73.3798 5.40812C64.1998 5.40812 55.2998 7.20813 46.9198 10.7481C38.8298 14.1681 31.5598 19.0681 25.3198 25.3181C19.0798 31.5581 14.1798 38.8281 10.7498 46.9181C7.20984 55.2981 5.40984 64.1981 5.40984 73.3781C5.40984 82.5581 7.20984 91.4581 10.7498 99.8381C14.1698 107.928 19.0698 115.198 25.3198 121.438C31.5598 127.678 38.8298 132.578 46.9198 136.008C55.2998 139.548 64.1998 141.348 73.3798 141.348C82.5598 141.348 91.4598 139.548 99.8398 136.008C107.93 132.588 115.2 127.688 121.44 121.438C127.68 115.198 132.58 107.928 136.01 99.8381C139.55 91.4581 141.35 82.5581 141.35 73.3781C141.35 64.1981 139.55 55.2981 136.01 46.9181C132.59 38.8281 127.69 31.5581 121.44 25.3181C115.2 19.0781 107.93 14.1781 99.8398 10.7481C91.4598 7.20813 82.5598 5.40812 73.3798 5.40812Z" fill="url(#paint4_linear_1113_665)"/>
</g>
<defs>
<linearGradient id="paint0_linear_1113_665" x1="155.91" y1="97.83" x2="-62.86" y2="33.02" gradientUnits="userSpaceOnUse">
<stop stop-color="#3D4041"/>
<stop offset="0.31" stop-color="#4E4F50"/>
<stop offset="0.67" stop-color="#404243"/>
<stop offset="0.72" stop-color="#78797A"/>
<stop offset="0.79" stop-color="#BDBDBD"/>
<stop offset="0.82" stop-color="#D9D8D8"/>
<stop offset="0.92" stop-color="#EFEEEE"/>
<stop offset="1" stop-color="white"/>
</linearGradient>
<radialGradient id="paint1_radial_1113_665" cx="0" cy="0" r="1" gradientUnits="userSpaceOnUse" gradientTransform="translate(73.3821 73.3826) scale(135)">
<stop offset="0.25" stop-color="white"/>
<stop offset="0.3" stop-color="#EAE9E9"/>
<stop offset="0.49" stop-color="#B1B0B0"/>
<stop offset="0.9" stop-color="#232222"/>
<stop offset="1" stop-color="#010101"/>
</radialGradient>
<linearGradient id="paint2_linear_1113_665" x1="73.7698" y1="21.7516" x2="72.9798" y2="79.6516" gradientUnits="userSpaceOnUse">
<stop stop-color="white"/>
<stop offset="1" stop-color="white"/>
</linearGradient>
<linearGradient id="paint3_linear_1113_665" x1="100.549" y1="27.4772" x2="5.83914" y2="187.437" gradientUnits="userSpaceOnUse">
<stop stop-color="#848587"/>
<stop offset="0.31" stop-color="#C7C5C6"/>
<stop offset="0.67" stop-color="#7F8081"/>
<stop offset="0.77" stop-color="#BDBDBD"/>
<stop offset="0.82" stop-color="#D9D8D8"/>
<stop offset="0.92" stop-color="#EFEEEE"/>
<stop offset="1" stop-color="white"/>
</linearGradient>
<linearGradient id="paint4_linear_1113_665" x1="73.3798" y1="111.988" x2="73.3798" y2="-16.0219" gradientUnits="userSpaceOnUse">
<stop stop-color="#82612F"/>
<stop offset="0.17" stop-color="#AC8533"/>
<stop offset="0.26" stop-color="#CEA952"/>
<stop offset="0.36" stop-color="#E8C66B"/>
<stop offset="0.44" stop-color="#F9D77A"/>
<stop offset="0.49" stop-color="#FFDE80"/>
<stop offset="0.62" stop-color="#EECB71"/>
<stop offset="0.82" stop-color="#CBA552"/>
<stop offset="1" stop-color="#82612F"/>
</linearGradient>
<clipPath id="clip0_1113_665">
<rect width="146.75" height="146.75" fill="white"/>
</clipPath>
</defs>
</svg>
