<svg width="251" height="48" viewBox="0 0 251 48" fill="none" xmlns="http://www.w3.org/2000/svg">
<path d="M225.351 27.0462C225.316 26.6996 225.274 26.4288 225.811 26.4377C226.341 26.4455 226.236 26.7375 226.243 27.0351C226.249 27.3505 226.301 27.6191 225.792 27.6113C225.303 27.6046 225.297 27.3806 225.351 27.0462Z" fill="#615F5E"/>
<path d="M147.785 27.0381C147.785 27.5731 147.578 27.7157 147.067 27.5876C146.921 27.5508 146.906 27.4683 146.906 27.3524C146.906 27.1964 146.893 27.0392 146.91 26.8854C146.925 26.7439 146.813 26.5243 147.017 26.4809C147.239 26.4329 147.514 26.4073 147.705 26.4987C147.893 26.5901 147.746 26.8709 147.785 27.037V27.0381Z" fill="#615F5E"/>
<path d="M179.407 27.1041C179.526 27.5064 179.309 27.6268 178.87 27.5889C178.643 27.5688 178.516 27.5354 178.548 27.279C178.564 27.1576 178.566 27.0294 178.548 26.9079C178.496 26.5513 178.623 26.4409 178.997 26.4376C179.376 26.4331 179.456 26.5758 179.408 26.8945C179.401 26.9402 179.408 26.987 179.408 27.1041H179.407Z" fill="#5D5C5B"/>
<path d="M169.601 26.9413C169.63 27.347 169.693 27.5944 169.203 27.6078C168.638 27.6234 168.766 27.2979 168.749 26.9926C168.728 26.6549 168.726 26.4342 169.215 26.4375C169.78 26.442 169.581 26.7886 169.601 26.9413Z" fill="#5A5A58"/>
<path d="M62.127 24.7544C62.1537 24.711 62.1828 24.7054 62.2163 24.7478C62.1861 24.75 62.1571 24.7522 62.127 24.7544Z" fill="#E22126"/>
<path d="M121.233 47.1494C118.417 45.87 115.789 44.6719 113.156 43.4805C108.664 41.4488 104.165 39.4338 99.6781 37.3898C96.3312 35.8652 94.4948 32.8628 94.8118 29.2775C95.1043 25.9864 96.8637 23.6693 99.9394 22.4746C103.704 21.0124 107.508 19.6516 111.306 18.2763C113.246 17.5742 114.623 16.3505 115.227 14.3444C116.216 11.0567 114.087 7.65301 110.69 7.10246C110.216 7.02556 109.73 6.98098 109.25 6.97986C104.604 6.97095 99.9561 6.97541 95.3097 6.97206C94.6745 6.97206 94.0437 7.00884 93.4532 7.26183C92.1303 7.82576 91.4493 8.86112 91.3086 10.2654C91.2718 10.6332 91.2963 11.0065 91.2963 11.3776C91.2963 22.5069 91.2974 33.6373 91.2941 44.7666C91.2941 46.2846 91.447 46.0661 90.0047 46.0773C88.4808 46.0884 86.9569 46.0795 85.432 46.0795C84.2877 46.0795 84.3725 46.1575 84.3725 44.975C84.3725 43.3423 84.3725 41.7107 84.3725 40.078C84.3725 30.3206 84.377 20.5644 84.3714 10.807C84.3692 7.23508 85.7166 4.31846 88.569 2.13741C90.3686 0.762127 92.4417 0.0923187 94.6901 0.0778303C99.7451 0.0443956 104.802 0.00761741 109.857 0.0845172C116.052 0.178134 121.129 4.54136 122.224 10.573C123.293 16.4697 119.901 22.4345 114.2 24.5375C110.48 25.9095 106.718 27.1688 102.975 28.4772C102.87 28.514 102.758 28.5307 102.653 28.5675C102.021 28.7893 101.52 29.1225 101.478 29.8793C101.432 30.685 101.92 31.0829 102.576 31.3716C107.156 33.3877 111.734 35.406 116.313 37.4233C117.738 38.0507 119.164 38.6771 120.589 39.3045C120.929 39.4539 121.249 39.5664 121.244 40.0668C121.221 42.3582 121.234 44.6507 121.234 47.1516L121.233 47.1494Z" fill="#B22425"/>
<path d="M227.089 46.0831C223.445 46.0831 219.801 46.0854 216.156 46.082C215.173 46.082 215.166 46.0731 215.162 45.1302C215.157 43.4607 215.157 41.7901 215.162 40.1206C215.166 39.1867 215.172 39.1789 216.159 39.1789C223.075 39.1766 229.992 39.1789 236.908 39.1755C237.354 39.1755 237.805 39.1889 238.245 39.1321C241.798 38.6751 244.145 35.8722 243.928 32.3649C243.725 29.0671 240.994 26.5584 237.503 26.5305C233.673 26.4993 229.844 26.5171 226.013 26.5216C224.434 26.5238 222.917 26.2207 221.443 25.6657C215.9 23.576 212.375 17.9969 212.916 12.1659C213.466 6.22787 217.912 1.34306 223.748 0.298784C224.66 0.136069 225.589 0.0613978 226.524 0.0625123C233.514 0.0714282 240.505 0.0669701 247.496 0.0669701C247.682 0.0669701 247.869 0.078115 248.054 0.0669701C248.43 0.0446803 248.589 0.212968 248.588 0.589665C248.581 2.55674 248.579 4.52381 248.591 6.48977C248.593 6.8999 248.388 6.99352 248.041 6.98126C247.781 6.97235 247.521 6.98126 247.26 6.98126C240.456 6.98126 233.651 6.98349 226.846 6.97903C225.874 6.97903 224.915 7.04702 223.992 7.37691C221.202 8.37437 219.421 11.2865 219.852 14.1419C220.32 17.2468 222.861 19.5716 225.949 19.6073C229.853 19.6519 233.758 19.6029 237.662 19.6251C243.732 19.6597 248.877 23.6351 250.453 29.4761C252.51 37.0992 247.295 44.8984 239.466 45.9304C238.651 46.0374 237.839 46.0865 237.021 46.0854C233.712 46.082 230.402 46.0842 227.093 46.0842L227.089 46.0831Z" fill="#B22425"/>
<path d="M43.931 22.9948C43.931 19.2111 43.9734 15.4263 43.9209 11.6437C43.8517 6.55048 47.4107 1.56314 53.0027 0.347229C53.9114 0.149964 54.8358 0.0619193 55.7691 0.0619193C62.6092 0.0641483 69.4482 0.0619193 76.2883 0.0619193C76.3999 0.0619193 76.5127 0.0741789 76.6221 0.0596905C77.1602 -0.0127513 77.341 0.222406 77.3321 0.752903C77.3064 2.16162 77.3365 3.57256 77.3187 4.98128C77.3109 5.60428 77.5821 6.38665 77.1948 6.81015C76.7962 7.24592 75.9991 6.96618 75.3795 6.96841C69.0228 6.98067 62.6672 6.9751 56.3106 6.97733C55.8651 6.97733 55.4152 6.97398 54.9754 7.03082C52.5115 7.34845 50.886 9.15058 50.8592 11.627C50.8347 14.0008 50.8503 16.3747 50.8537 18.7497C50.8548 19.6446 50.8637 19.6546 51.7535 19.6558C58.2955 19.6591 64.8375 19.6546 71.3806 19.6602C72.9268 19.6613 72.7125 19.4942 72.7236 21.0411C72.7337 22.4509 72.7292 23.8607 72.7236 25.2706C72.7192 26.6157 72.8487 26.4831 71.5526 26.4842C66.7197 26.4876 61.888 26.4853 57.0552 26.4853C55.2332 26.4853 53.4124 26.5065 51.5916 26.4731C51.0155 26.4631 50.8302 26.628 50.838 27.2165C50.8693 29.6271 50.8358 32.0388 50.8559 34.4495C50.8793 37.1956 52.7939 39.1047 55.567 39.1682C56.4959 39.1894 57.4258 39.1727 58.3547 39.1727C64.2648 39.1727 70.1749 39.1727 76.0851 39.1727C76.3452 39.1727 76.6053 39.1816 76.8654 39.1738C77.2037 39.1638 77.3198 39.3399 77.3198 39.653C77.3165 41.619 77.3153 43.585 77.3198 45.5509C77.3198 45.9131 77.1836 46.1093 76.7951 46.0792C76.6477 46.068 76.4981 46.0792 76.3497 46.0792C69.3611 46.0792 62.3725 46.1037 55.3851 46.0692C50.4328 46.0446 46.1235 42.9118 44.5316 38.2811C44.1051 37.0418 43.8964 35.769 43.9276 34.4584C43.9298 34.3837 43.9276 34.3102 43.9276 34.2355C43.9276 30.4886 43.9276 26.7417 43.9276 22.9959L43.931 22.9948Z" fill="#B22425"/>
<path d="M0.0344494 0.0644738C1.78048 0.0644738 3.52204 0.0477564 5.26248 0.0733897C5.87872 0.0823056 6.60214 -0.178485 7.08554 0.232762C7.51981 0.602772 7.52874 1.30936 7.71071 1.86995C11.5444 13.7136 15.3702 25.5584 19.1983 37.4032C19.3122 37.7554 19.4216 38.1098 19.5634 38.4508C19.7532 38.9078 20.135 39.1507 20.6117 39.1418C21.0884 39.1329 21.4579 38.8777 21.6454 38.4207C21.7437 38.1811 21.8151 37.9304 21.8944 37.6841C25.8274 25.5228 29.7604 13.3614 33.6935 1.20014C33.7616 0.988385 33.8497 0.781091 33.8978 0.565994C33.9725 0.227189 34.1512 0.0611305 34.5129 0.0622449C36.7378 0.0689319 38.9639 0.0655883 41.1799 0.0655883C41.2916 0.53033 41.0795 0.862448 40.97 1.20348C36.8305 14.0379 32.6731 26.8657 28.5458 39.7035C27.8648 41.8233 26.8165 43.6287 24.8807 44.8324C20.4241 47.6019 14.6859 45.5657 12.9555 40.5539C11.9519 37.6473 11.0431 34.7084 10.0975 31.7828C6.8243 21.6677 3.55106 11.5504 0.291218 1.42972C0.159485 1.02182 -0.0917021 0.619489 0.0344494 0.0644738Z" fill="#B22425"/>
<path d="M211.886 46.078C209.654 46.078 207.426 46.0646 205.202 46.088C204.673 46.0936 204.615 45.7448 204.503 45.397C203.736 43.0366 202.969 40.6772 202.205 38.3156C198.994 28.3766 195.786 18.4364 192.575 8.49741C192.485 8.21545 192.407 7.92568 192.278 7.66043C192.066 7.22021 191.685 6.98728 191.2 7.01403C190.768 7.03743 190.412 7.24807 190.24 7.66489C190.098 8.00592 189.991 8.36145 189.877 8.71362C185.955 20.8359 182.035 32.9593 178.11 45.0816C177.734 46.2441 177.955 46.0669 176.756 46.0758C175.046 46.088 173.337 46.0836 171.626 46.0747C171.301 46.0724 170.963 46.1549 170.648 45.9911C170.619 45.6411 170.764 45.3369 170.866 45.0203C175.067 32.0154 179.26 19.007 183.464 6.00319C184.499 2.80126 186.628 0.762858 190 0.213415C193.925 -0.427417 197.551 1.73135 198.86 5.50947C200.013 8.83288 201.056 12.1953 202.138 15.5421C205.305 25.3396 208.468 35.1382 211.631 44.9379C211.744 45.2856 211.915 45.6199 211.886 46.078Z" fill="#B22425"/>
<path d="M175.637 6.86443C175.171 7.07284 174.756 6.98925 174.354 6.98925C170.784 6.99705 167.213 6.99371 163.644 6.99371C163.384 6.99371 163.123 7.00485 162.864 6.99594C162.438 6.98145 162.26 7.18429 162.28 7.60111C162.294 7.89756 162.28 8.19513 162.28 8.49158C162.28 20.5526 162.28 32.6136 162.277 44.6757C162.277 45.1159 162.353 45.5651 162.167 46.0855C160.081 46.0855 157.97 46.0811 155.859 46.09C155.46 46.0922 155.338 45.9005 155.352 45.5417C155.363 45.2452 155.352 44.9476 155.352 44.6512C155.352 32.5155 155.354 20.3798 155.35 8.24528C155.35 6.82654 155.506 7.0004 154.106 6.99705C150.424 6.98925 146.743 6.99594 143.062 6.99371C142.01 6.99371 142.004 6.98814 142.002 5.99847C141.998 4.32897 141.995 2.65835 142.003 0.988841C142.008 0.0927915 142.019 0.0805322 142.938 0.0805322C148.405 0.0771887 153.87 0.0783034 159.337 0.0783034C164.358 0.0783034 169.378 0.0783034 174.398 0.0783034C174.659 0.0783034 174.919 0.0861048 175.179 0.0794179C175.513 0.0716165 175.64 0.244362 175.639 0.559763C175.637 2.67061 175.638 4.78256 175.638 6.86554L175.637 6.86443Z" fill="#B22425"/>
<path d="M129.492 46.0898C129.295 45.6607 129.366 45.284 129.366 44.9185C129.363 30.3477 129.363 15.7757 129.363 1.20488C129.363 0.981983 129.368 0.760199 129.365 0.537301C129.359 0.214099 129.509 0.0770172 129.837 0.0781317C131.807 0.0848187 133.776 0.0837042 135.744 0.0781317C136.105 0.0781317 136.307 0.205184 136.29 0.59414C136.279 0.852702 136.29 1.11349 136.29 1.37317C136.29 15.8337 136.292 30.2931 136.288 44.7536C136.288 46.3005 136.462 46.0776 134.904 46.0876C133.089 46.0987 131.274 46.0898 129.491 46.0898H129.492Z" fill="#B22425"/>
</svg>
